<?xml version="1.0" encoding="utf-8"?>
<!-- Generator: Adobe Illustrator 23.0.1, SVG Export Plug-In . SVG Version: 6.00 Build 0)  -->
<svg version="1.1" id="Layer_1" xmlns="http://www.w3.org/2000/svg" xmlns:xlink="http://www.w3.org/1999/xlink" x="0px" y="0px"
	 viewBox="0 0 128 128" style="enable-background:new 0 0 128 128;" xml:space="preserve">
<style type="text/css">
	.st0{fill:#8892B0;}
	.st1{fill:none;stroke:#8892B0;stroke-width:10;stroke-miterlimit:10;}
</style>
<g>
	<path class="st0" d="M67.6,67H57.4L45.3,88c-5.7,10-12.5,15-20.4,15c-4.8,0-8.9-1.7-12.1-5.2C9.5,94.3,7.9,90,7.9,84.9
		c0-4.2,1.3-8.2,3.8-12c2.5-3.9,6-7.1,10.3-9.6c3.3-1.9,6.9-3.2,10.8-3.9s9.2-1.1,15.8-1.1h2.7l2.9-5.3c4-7.4,9-12.4,14.8-14.8
		c3.7-1.6,8.6-2.4,14.7-2.4c1.5,0,2.8,0.3,3.6,1c0.9,0.7,1.3,1.6,1.3,2.9c0,0.6-0.1,1.2-0.4,2l-0.3,0.8l-6.3,15.8h2.8h1
		c2.7,0,4.1,1.2,4.1,3.6c0,1.4-0.6,2.7-1.7,3.7s-2.5,1.5-4.1,1.5h-1H78L74,77h6h1c2.7,0,4.1,1.2,4.1,3.5c0,1.5-0.6,2.7-1.7,3.7
		s-2.5,1.5-4.1,1.5h-1h-7.9c-2.1,0-3.8-0.5-5.2-1.6c-1.3-1.1-2-2.5-2-4.2c0-1.3,0.5-3.3,1.5-5.7L67.6,67z M46.3,67h-3.1
		c-7,0-12.6,1.3-16.7,3.9c-2.6,1.7-4.7,3.7-6.3,6.2c-1.6,2.5-2.3,5-2.3,7.6c0,2.3,0.7,4.3,2.2,6s3.3,2.5,5.4,2.5
		c3.7,0,7-2.4,9.8-7.3L46.3,67z M71.2,58.2l5.3-13c-2.6,0.2-4.8,1-6.6,2.5c-1.8,1.5-3.8,4.2-6.1,8.1l-1.5,2.5h8.9V58.2z"/>
</g>
<path class="st1" d="M58,107.6L19.9,69.5c-4.7-4.7-4.7-12.3,0-17L58,14.4c4.7-4.7,12.3-4.7,17,0l38.1,38.1c4.7,4.7,4.7,12.3,0,17
	L75,107.6C70.3,112.3,62.7,112.3,58,107.6z"/>
</svg>
