<?xml version="1.0" encoding="utf-8"?>
<!-- Generator: Adobe Illustrator 23.0.1, SVG Export Plug-In . SVG Version: 6.00 Build 0)  -->
<svg version="1.1" xmlns="http://www.w3.org/2000/svg" xmlns:xlink="http://www.w3.org/1999/xlink" x="0px" y="0px"
	 viewBox="0 0 128 128" style="enable-background:new 0 0 128 128;" xml:space="preserve">
<style type="text/css">
	.st0{display:none;}
	.st1{fill:#7EB8DC;}
</style>
<g id="Layer_1" class="st0">
	
		<image style="display:inline;overflow:visible;" width="180" height="180" xlink:href="steam.png"  transform="matrix(0.7119 0 0 0.7119 0 -0.1383)">
	</image>
</g>
<g id="Layer_2">
	<path class="st1" d="M57.7,0.7c-2.2,1.6-5.1,4.1-7.8,7.7C41,19.7,40.9,32.3,41,35.4c0.3,10.9,4.6,18.7,6.5,21.6
		c4.7,7.5,9.4,8.6,16.5,16.9c8,9.3,11.2,15.3,12.9,20.7c2.2,6.7,2.4,13.4,2,18.7c0,0.5-0.2,2.1,0.2,2.2c0.7,0.2,2.9-6.6,3.7-9.4
		c2.3-7.8,3.6-17.4,0.9-27.7c-2.2-8.3-7.3-14.1-15.3-22c-2.2-2.2-2.9-2.6-4.4-4.4c-6.3-7.5-10.2-12.8-11.1-17
		C50,21.1,55.3,7.6,57.7,0.7z"/>
	<path class="st1" d="M66.7,28.1c-0.9,0.3-0.6,5.1,1.4,9.5c2.2,4.9,5.5,9,9.7,11.4c6.7,3.8,6.7,3.8,8.7,7c1.5,2.3,2,4.8,3.1,9.9
		c1.4,6.5,0.8,8.3,1.4,8.3c0.9,0.1,2.5-4.3,3.1-8.7c0.4-3.4,2-7.6-1.4-12.9c-1.8-2.8-4.8-5.5-7.2-7.1c-3.6-2.4-5-2-7.9-4
		C64,32.4,67.9,27.7,66.7,28.1z"/>
	<path class="st1" d="M35.1,42.9c-1.2,0-1.8,10.1-1.5,17.9c0.2,4.2,0.2,6.4,1.1,8.8c1.5,4,3.6,5.4,9.3,11.6c4.5,4.9,6.7,7.3,8,9.6
		c4.9,8.1,4.4,16,5.4,16c1,0,2.2-6,1.5-11.9c-0.6-5.2-2.4-9.2-3.8-11.9c-4-7.2-7.8-8.1-12-13C33.5,58.5,36.6,42.8,35.1,42.9z"/>
</g>
</svg>
